<svg width="27" height="34" viewBox="0 0 27 34" fill="none" xmlns="http://www.w3.org/2000/svg">
<path fill-rule="evenodd" clip-rule="evenodd" d="M1.68671 27.1161C1.39916 27.1159 1.11641 27.0408 0.865304 26.8978C0.614195 26.7549 0.403054 26.5488 0.251913 26.2992C0.100773 26.0496 0.0146475 25.7647 0.00170934 25.4717C-0.0112288 25.1786 0.0494497 24.8869 0.177986 24.6245L3.37432 18.1003V13.3411C3.37432 6.92193 7.67774 1.52902 13.5 0C19.3223 1.52902 23.6257 6.92193 23.6257 13.3411V18.1003L26.822 24.6245C26.9506 24.8869 27.0112 25.1786 26.9983 25.4717C26.9854 25.7647 26.8992 26.0496 26.7481 26.2992C26.5969 26.5488 26.3858 26.7549 26.1347 26.8978C25.8836 27.0408 25.6008 27.1159 25.3133 27.1161H1.68671ZM6.96219 28.8379C7.33758 30.3157 8.1833 31.6245 9.36659 32.5588C10.5499 33.4931 12.0038 34 13.5 34C14.9962 34 16.4501 33.4931 17.6334 32.5588C18.8167 31.6245 19.6624 30.3157 20.0378 28.8379H6.96219Z" fill="#1E1E1E"/>
</svg>
